<?xml version="1.0" standalone="no"?>
<!DOCTYPE svg PUBLIC "-//W3C//DTD SVG 20010904//EN"
 "http://www.w3.org/TR/2001/REC-SVG-20010904/DTD/svg10.dtd">
<svg version="1.0" xmlns="http://www.w3.org/2000/svg"
 width="1080.000000pt" height="1080.000000pt" viewBox="0 0 1080.000000 1080.000000"
 preserveAspectRatio="xMidYMid meet">
<metadata>
Created by potrace 1.14, written by Peter Selinger 2001-2017
</metadata>
<g transform="translate(0.000000,1080.000000) scale(0.100000,-0.100000)"
fill="#000000" stroke="none">
<path d="M3810 10793 c-552 -41 -1034 -165 -1490 -385 -465 -223 -827 -481
-1170 -834 -301 -310 -513 -608 -711 -999 -229 -454 -354 -873 -416 -1395 -17
-144 -18 -268 -18 -1780 0 -1512 1 -1636 18 -1780 69 -578 230 -1076 510
-1575 301 -537 755 -1022 1280 -1368 469 -309 973 -512 1517 -611 347 -63 287
-61 2075 -61 1753 0 1699 -1 2010 51 916 154 1758 621 2369 1314 401 454 700
1003 860 1575 78 278 114 479 141 785 12 136 15 433 15 1670 0 1670 -2 1716
-66 2070 -67 368 -171 687 -335 1028 -202 420 -435 755 -753 1080 -591 605
-1350 1007 -2181 1156 -348 63 -259 60 -2010 62 -880 0 -1620 -1 -1645 -3z"/>
</g>
</svg>
